<?xml version="1.0" encoding="utf-8"?>
<!-- Generator: Adobe Illustrator 16.0.0, SVG Export Plug-In . SVG Version: 6.00 Build 0)  -->
<!DOCTYPE svg PUBLIC "-//W3C//DTD SVG 1.1//EN" "http://www.w3.org/Graphics/SVG/1.1/DTD/svg11.dtd">
<svg version="1.1" id="Layer_1" xmlns="http://www.w3.org/2000/svg" xmlns:xlink="http://www.w3.org/1999/xlink" x="0px" y="0px"
	 width="28.348px" height="28.346px" viewBox="0 0 28.348 28.346" enable-background="new 0 0 28.348 28.346" xml:space="preserve">
<g>
	<path fill="#FFFFFF" d="M21.524,26.646c0.036,0.218,0.289,0.324,0.469,0.289l3.779-0.899c0.18-0.035,0.288-0.181,0.217-0.396
		L18.141,1.733c-0.036-0.216-0.217-0.359-0.433-0.359h-5.724c-0.181,0-0.36,0.145-0.396,0.359L3.741,25.676
		C3.669,25.858,3.776,26,3.956,26.035L7.7,26.935c0.181,0.035,0.396-0.106,0.433-0.289l3.133-10.114l2.88-9.074l0.685-3.203
		l0.685,3.203l2.844,9.074L21.524,26.646z"/>
</g>
</svg>
