<?xml version="1.0" encoding="utf-8"?>
<!-- Generator: Adobe Illustrator 16.0.0, SVG Export Plug-In . SVG Version: 6.00 Build 0)  -->
<!DOCTYPE svg PUBLIC "-//W3C//DTD SVG 1.1//EN" "http://www.w3.org/Graphics/SVG/1.1/DTD/svg11.dtd" [
	<!ENTITY ns_flows "http://ns.adobe.com/Flows/1.0/">
	<!ENTITY ns_extend "http://ns.adobe.com/Extensibility/1.0/">
	<!ENTITY ns_ai "http://ns.adobe.com/AdobeIllustrator/10.0/">
	<!ENTITY ns_graphs "http://ns.adobe.com/Graphs/1.0/">
]>
<svg version="1.1" id="Layer_1" xmlns:x="&ns_extend;" xmlns:i="&ns_ai;" xmlns:graph="&ns_graphs;"
	 xmlns="http://www.w3.org/2000/svg" xmlns:xlink="http://www.w3.org/1999/xlink" xmlns:a="http://ns.adobe.com/AdobeSVGViewerExtensions/3.0/"
	 x="0px" y="0px" width="170px" height="30px" viewBox="0 0 170 30" enable-background="new 0 0 170 30" xml:space="preserve">
<g>
	<path fill="#FFFFFF" d="M165.956,2.508h-19.368c-0.181,0-0.324,0.145-0.324,0.324v3.492c0,0.18,0.144,0.324,0.324,0.324h7.416
		v20.627c0,0.18,0.144,0.324,0.323,0.324h3.889c0.18,0,0.324-0.145,0.324-0.324V6.648h7.416c0.18,0,0.324-0.145,0.324-0.324V2.832
		C166.28,2.652,166.136,2.508,165.956,2.508 M131.18,18.203h5.651c5.688,0,8.604-1.943,8.604-7.848c0-5.508-3.06-7.848-7.128-7.848
		h-11.304c-0.181,0-0.324,0.145-0.324,0.324v24.443c0,0.18,0.144,0.324,0.324,0.324h3.853c0.18,0,0.323-0.145,0.323-0.324V18.203z
		 M131.18,6.287h6.876c1.764,0,2.448,0.865,2.448,3.996c0,3.205-0.72,4.141-2.521,4.141h-6.804V6.287z M110.624,23.855
		c-4.788,0-5.797-0.9-5.797-9.035c0-7.813,1.009-8.676,5.797-8.676c4.716,0,5.724,0.863,5.724,8.676
		C116.348,22.955,115.34,23.855,110.624,23.855 M110.588,1.896c-7.236,0-10.836,2.52-10.836,12.887c0,10.621,3.6,13.32,10.836,13.32
		c7.235,0,10.836-2.699,10.836-13.32C121.424,4.416,117.823,1.896,110.588,1.896 M94.497,2.832c0-0.18-0.145-0.324-0.324-0.324
		H75.704c-0.18,0-0.323,0.145-0.323,0.324v24.443c0,0.18,0.144,0.324,0.323,0.324h3.853c0.181,0,0.324-0.145,0.324-0.324V6.648
		h10.116v20.627c0,0.18,0.144,0.324,0.324,0.324h3.852c0.18,0,0.324-0.145,0.324-0.324V2.832z M59.325,23.855
		c-4.789,0-5.797-0.9-5.797-9.035c0-7.813,1.008-8.676,5.797-8.676c4.715,0,5.724,0.863,5.724,8.676
		C65.049,22.955,64.04,23.855,59.325,23.855 M59.288,1.896c-7.235,0-10.836,2.52-10.836,12.887c0,10.621,3.601,13.32,10.836,13.32
		c7.236,0,10.836-2.699,10.836-13.32C70.124,4.416,66.524,1.896,59.288,1.896 M44.961,27.6c0.18,0,0.323-0.145,0.323-0.324v-3.24
		c0-0.18-0.144-0.322-0.323-0.322H33.585v-7.236h9.035c0.181,0,0.324-0.145,0.324-0.324v-3.205c0-0.18-0.144-0.324-0.324-0.324
		h-9.035V6.396h11.376c0.18,0,0.323-0.145,0.323-0.324v-3.24c0-0.18-0.144-0.324-0.323-0.324H29.409
		c-0.18,0-0.324,0.145-0.324,0.324v24.443c0,0.18,0.145,0.324,0.324,0.324H44.961z M21.524,27.779
		c0.036,0.217,0.289,0.324,0.469,0.289l3.779-0.9c0.18-0.035,0.288-0.18,0.217-0.396L18.141,2.867
		c-0.036-0.215-0.216-0.359-0.432-0.359h-5.724c-0.181,0-0.36,0.145-0.396,0.359L3.741,26.809c-0.072,0.18,0.035,0.324,0.215,0.359
		l3.744,0.9c0.181,0.035,0.396-0.107,0.433-0.289l3.132-10.115l2.88-9.072l0.685-3.203l0.684,3.203l2.844,9.072L21.524,27.779z"/>
</g>
</svg>
