<?xml version="1.0" encoding="utf-8"?>
<!-- Generator: Adobe Illustrator 16.0.0, SVG Export Plug-In . SVG Version: 6.00 Build 0)  -->
<!DOCTYPE svg PUBLIC "-//W3C//DTD SVG 1.1//EN" "http://www.w3.org/Graphics/SVG/1.1/DTD/svg11.dtd">
<svg version="1.1" id="Layer_1" xmlns="http://www.w3.org/2000/svg" xmlns:xlink="http://www.w3.org/1999/xlink" x="0px" y="0px"
	 width="28.347px" height="28.346px" viewBox="0 0.827 28.347 28.346" enable-background="new 0 0.827 28.347 28.346"
	 xml:space="preserve">
<g>
	<path fill="#FFFFFF" d="M21.524,27.779c0.036,0.217,0.289,0.324,0.469,0.289l3.779-0.9c0.18-0.035,0.288-0.18,0.217-0.396
		L18.141,2.867c-0.036-0.215-0.216-0.359-0.432-0.359h-5.724c-0.181,0-0.36,0.145-0.396,0.359L3.741,26.809
		c-0.072,0.181,0.035,0.324,0.215,0.359l3.744,0.9c0.181,0.035,0.396-0.107,0.433-0.289l3.132-10.115l2.88-9.072l0.685-3.203
		l0.684,3.203l2.844,9.072L21.524,27.779z"/>
</g>
</svg>
