<svg xmlns="http://www.w3.org/2000/svg" width="170" height="30" viewBox="0 0 170 30"><path fill="#FFF" d="M165.956 2.508h-19.368a.323.323 0 0 0-.324.324v3.492c0 .18.144.324.324.324h7.416v20.627c0 .18.144.324.323.324h3.889c.18 0 .324-.145.324-.324V6.648h7.416c.18 0 .324-.145.324-.324V2.832a.323.323 0 0 0-.324-.324M131.18 18.203h5.651c5.688 0 8.604-1.943 8.604-7.848 0-5.508-3.06-7.848-7.128-7.848h-11.304a.323.323 0 0 0-.324.324v24.443c0 .18.144.324.324.324h3.853c.18 0 .323-.145.323-.324v-9.071zm0-11.916h6.876c1.764 0 2.448.865 2.448 3.996 0 3.205-.72 4.141-2.521 4.141h-6.804V6.287zm-20.556 17.568c-4.788 0-5.797-.9-5.797-9.035 0-7.813 1.009-8.676 5.797-8.676 4.716 0 5.724.863 5.724 8.676 0 8.135-1.008 9.035-5.724 9.035m-.036-21.959c-7.236 0-10.836 2.52-10.836 12.887 0 10.621 3.6 13.32 10.836 13.32 7.235 0 10.836-2.699 10.836-13.32 0-10.367-3.601-12.887-10.836-12.887m-16.091.936a.323.323 0 0 0-.324-.324H75.704a.322.322 0 0 0-.323.324v24.443c0 .18.144.324.323.324h3.853a.323.323 0 0 0 .324-.324V6.648h10.116v20.627c0 .18.144.324.324.324h3.852c.18 0 .324-.145.324-.324V2.832zM59.325 23.855c-4.789 0-5.797-.9-5.797-9.035 0-7.813 1.008-8.676 5.797-8.676 4.715 0 5.724.863 5.724 8.676 0 8.135-1.009 9.035-5.724 9.035m-.037-21.959c-7.235 0-10.836 2.52-10.836 12.887 0 10.621 3.601 13.32 10.836 13.32 7.236 0 10.836-2.699 10.836-13.32 0-10.367-3.6-12.887-10.836-12.887M44.961 27.6c.18 0 .323-.145.323-.324v-3.24a.32.32 0 0 0-.323-.322H33.585v-7.236h9.035a.323.323 0 0 0 .324-.324v-3.205a.323.323 0 0 0-.324-.324h-9.035V6.396h11.376c.18 0 .323-.145.323-.324v-3.24a.322.322 0 0 0-.323-.324H29.409a.323.323 0 0 0-.324.324v24.443c0 .18.145.324.324.324h15.552zm-23.437.179c.036.217.289.324.469.289l3.779-.9c.18-.035.288-.18.217-.396L18.141 2.867a.428.428 0 0 0-.432-.359h-5.724a.42.42 0 0 0-.396.359L3.741 26.809c-.072.18.035.324.215.359l3.744.9a.396.396 0 0 0 .433-.289l3.132-10.115 2.88-9.072.685-3.203.684 3.203 2.844 9.072 3.166 10.115z"/></svg>